<svg width="35" height="43" viewBox="0 0 35 43" fill="none" xmlns="http://www.w3.org/2000/svg">
        <path d="M33.8934 17.2874C33.8934 29.5029 17.7597 41.7185 17.7597 41.7185C17.7597 41.7185 1.62598 29.5029 1.62598 17.2874C1.62598 12.9677 3.32578 8.82494 6.35144 5.77047C9.3771 2.71599 13.4808 1 17.7597 1C22.0386 1 26.1423 2.71599 29.168 5.77047C32.1936 8.82494 33.8934 12.9677 33.8934 17.2874Z" fill="#EF5C5C" stroke="#EF5C5C" stroke-width="2" stroke-linecap="round" stroke-linejoin="round"/>
        <path d="M29.5095 17.3256C29.4616 26.1549 17.6531 34.9205 17.6531 34.9205C17.6531 34.9205 5.94015 26.0275 5.98798 17.1982C6.0049 14.0759 7.26019 11.0883 9.47772 8.8925C11.6952 6.69669 14.6934 5.4726 17.8125 5.48949C20.9316 5.50639 23.9163 6.7629 26.1099 8.9826C28.3035 11.2023 29.5264 14.2034 29.5095 17.3256Z" fill="white" stroke="#EF5C5C" stroke-width="2" stroke-linecap="round" stroke-linejoin="round"/>
        <g clip-path="url(#clip0_49_5236)">
        <path d="M12.3037 15.3256L17.7777 11.0681L23.2516 15.3256V22.016C23.2516 22.3386 23.1234 22.648 22.8953 22.8762C22.6672 23.1043 22.3578 23.2324 22.0352 23.2324H13.5201C13.1975 23.2324 12.8881 23.1043 12.66 22.8762C12.4319 22.648 12.3037 22.3386 12.3037 22.016V15.3256Z" stroke="#EF5C5C" stroke-width="2.4" stroke-linecap="round" stroke-linejoin="round"/>
        <path d="M15.9531 23.2323V17.1501H19.6024V23.2323" stroke="#EF5C5C" stroke-width="2.4" stroke-linecap="round" stroke-linejoin="round"/>
        </g>
        <defs>
        <clipPath id="clip0_49_5236">
        <rect width="14.5972" height="14.5972" fill="white" transform="translate(10.4795 9.85156)"/>
        </clipPath>
        </defs>
      </svg>